# xmcd
#
# Track frame offsets: 
#        150
#        14589
#        30042
#        44760
#        58898
#        73394
#        87227
#        101548
#        115484
#        128968
#        143918
#        158316
#        171647
#        184449
#        199383
#        211003
#        223922
#        237688
#        249013
#        262335
#
# Disc length: 3622 seconds
#
# Revision: 0
# Processed by: cddbd v1.5.2PL0 Copyright (c) Steve Scherf et al.
# Submitted via: ExactAudioCopy v0.99pb5
#
DISCID=3c0e2414
DTITLE=Frank Sinatra  - Entertain Me Box - Sinatra At The Movies - Dis
DTITLE=c 4 
DYEAR=1900
DGENRE=
TTITLE0=Too Romatic
TTITLE1=Say It
TTITLE2=This Is The Beginning Of The End
TTITLE3=April Played The Fiddle
TTITLE4=I Could Make You Care
TTITLE5=Our Love Affair
TTITLE6=Do You Know Why
TTITLE7=Not So Long Ago
TTITLE8=Dolores
TTITLE9=I'll Never Let A Day
TTITLE10=Love Me As I Am
TTITLE11=How About You
TTITLE12=Poor You
TTITLE13=I'll Take Tallulah
TTITLE14=The Last Call For Love
TTITLE15=Be Careful It's My Heart
TTITLE16=You'll Never know
TTITLE17=Night And Day
TTITLE18=You Me Make Me Feel So Young
TTITLE19=I'm In The Mood For Love
EXTD=
EXTT0=
EXTT1=
EXTT2=
EXTT3=
EXTT4=
EXTT5=
EXTT6=
EXTT7=
EXTT8=
EXTT9=
EXTT10=
EXTT11=
EXTT12=
EXTT13=
EXTT14=
EXTT15=
EXTT16=
EXTT17=
EXTT18=
EXTT19=
PLAYORDER=
